<svg width="25" height="25" viewBox="0 0 25 25" fill="none" xmlns="http://www.w3.org/2000/svg">
<path d="M12.0301 5.07274C12.3927 5.07054 12.749 5.09627 13.097 5.14731C13.4449 5.19833 13.7847 5.27427 14.114 5.37454C14.5532 5.50823 14.9741 5.68408 15.3721 5.89718C15.6706 6.05701 15.9563 6.23798 16.227 6.4379C16.4075 6.57118 16.5815 6.71283 16.7481 6.86247C17.4146 7.46089 17.9655 8.18576 18.3637 8.99918C18.5132 9.30459 18.6411 9.6225 18.7454 9.95099C18.9539 10.6071 19.0681 11.3054 19.0725 12.0301C19.096 15.896 15.9811 19.049 12.1152 19.0725C8.24926 19.096 5.09627 15.981 5.07279 12.1151C5.04941 8.24929 8.16429 5.09622 12.0301 5.07274ZM12.0393 6.57271C9.00181 6.59116 6.55442 9.06859 6.57276 12.106C6.59064 15.0485 8.91603 17.4377 11.8228 17.5674L12.1061 17.5725L12.0393 6.57271Z" fill="black"/>
</svg>
